<svg width="29" height="28" viewBox="0 0 29 28" fill="none" xmlns="http://www.w3.org/2000/svg">
<path d="M14.5 11.6667L9.83329 5.13337L11.7 2.33337H17.3L19.1666 5.13337L14.5 11.6667ZM18.5833 7.93337L17.1833 9.91671C19.75 10.9667 21.5 13.4167 21.5 16.3334C21.5 18.1899 20.7625 19.9704 19.4497 21.2831C18.137 22.5959 16.3565 23.3334 14.5 23.3334C12.6434 23.3334 10.863 22.5959 9.55021 21.2831C8.23746 19.9704 7.49996 18.1899 7.49996 16.3334C7.49996 13.4167 9.24996 10.9667 11.8166 9.91671L10.4166 7.93337C7.26663 9.45004 5.16663 12.6 5.16663 16.3334C5.16663 18.8087 6.14996 21.1827 7.9003 22.933C9.65064 24.6834 12.0246 25.6667 14.5 25.6667C16.9753 25.6667 19.3493 24.6834 21.0996 22.933C22.85 21.1827 23.8333 18.8087 23.8333 16.3334C23.8333 12.6 21.7333 9.45004 18.5833 7.93337Z" fill="white"/>
</svg>
